<svg width="412" height="412" viewBox="0 0 412 412" fill="none" xmlns="http://www.w3.org/2000/svg">
<path d="M302 0C362.751 2.83477e-06 412 49.2487 412 110V302C412 362.751 362.751 412 302 412H110C49.2487 412 2.83551e-06 362.751 0 302V110C2.83551e-06 49.2487 49.2487 2.83477e-06 110 0H302ZM68 307H92.8105L115.846 249.632H190.618L213.653 307H238.464L164.75 123.421H141.714L68 307ZM302.964 221.351C296.188 217.446 288.321 215.211 279.929 215.211C254.485 215.211 233.857 235.759 233.857 261.105C233.858 286.452 254.485 307 279.929 307C288.32 307 296.188 304.765 302.964 300.86V307H326V215.211H302.964V221.351ZM279.929 238.158C292.651 238.158 302.964 248.432 302.964 261.105C302.964 273.779 292.651 284.053 279.929 284.053C267.206 284.053 256.893 273.779 256.893 261.105C256.893 248.432 267.206 238.158 279.929 238.158ZM181.403 226.685H125.061L153.232 156.524L181.403 226.685ZM285.348 92.666C283.316 87.778 276.539 87.7779 274.506 92.666L271.59 99.6797C266.615 111.646 257.334 121.201 245.664 126.371L237.403 130.031C232.673 132.127 232.673 138.986 237.403 141.082L246.153 144.958C257.531 149.999 266.649 159.213 271.711 170.786L274.55 177.276C276.629 182.028 283.226 182.028 285.304 177.276L288.145 170.786C293.207 159.213 302.324 149.999 313.701 144.958L322.45 141.082C327.182 138.986 327.182 132.127 322.45 130.031L314.19 126.371C302.521 121.201 293.239 111.645 288.264 99.6797L285.348 92.666Z" fill="black"/>
</svg>
